<svg xmlns="http://www.w3.org/2000/svg" xmlns:xlink="http://www.w3.org/1999/xlink" width="100" zoomAndPan="magnify" viewBox="0 0 1500 1499.999933" height="100" preserveAspectRatio="xMidYMid meet" version="1.0"><path fill="#7bb7e0" d="M 381 289 L 381 1107 C 392 1118 403 1129 415 1140 C 444 1165 476 1187 511 1205 L 511 603 L 1119 1211 L 1119 393 C 1108 382 1097 371 1085 360 C 1056 335 1024 313 989 295 L 989 896 L 436 344 L 381 289 " fill-opacity="1" fill-rule="nonzero"/><path fill="#7bb7e0" d="M 130 750 C 130 497 282 279 500 183 L 858 541 L 858 357 L 533 32 C 225 125 0 412 0 750 C 0 1164 336 1500 750 1500 C 790 1500 830 1497 868 1491 L 747 1370 C 407 1368 130 1091 130 750 " fill-opacity="1" fill-rule="nonzero"/><path fill="#7bb7e0" d="M 750 0 C 729 0 709 1 688 3 L 820 134 C 1129 169 1370 432 1370 750 C 1370 986 1237 1192 1043 1296 L 642 895 L 642 1080 L 1014 1452 C 1298 1345 1500 1071 1500 750 C 1500 336 1164 0 750 0 " fill-opacity="1" fill-rule="nonzero"/></svg>